<svg width="96" height="82" viewBox="0 0 96 82" fill="none" xmlns="http://www.w3.org/2000/svg">
	<path d="M3 79L28.4907 43.5462" stroke="#569959" stroke-width="6" stroke-linecap="round"/>
	<path d="M68 38L28.4907 43.5462" stroke="#569959" stroke-width="6" stroke-linecap="round"/>
	<path d="M68 38L93 9" stroke="#569959" stroke-width="6" stroke-linecap="round"/>
	<mask id="path-4-outside-1_0_1" maskUnits="userSpaceOnUse" x="40" y="-1" width="23" height="30" fill="black">
		<rect fill="white" x="40" y="-1" width="23" height="30"/>
		<path d="M61.8 0.199998L61.16 3.76H53.76L49.48 28H44.92L49.2 3.76H41.76L42.4 0.199998H61.8Z"/>
	</mask>
	<path d="M61.8 0.199998L61.16 3.76H53.76L49.48 28H44.92L49.2 3.76H41.76L42.4 0.199998H61.8Z" fill="#838383"/>
	<path d="M61.8 0.199998L62.7842 0.376936C62.8366 0.0854321 62.7571 -0.214306 62.5671 -0.441509C62.3771 -0.668712 62.0962 -0.800002 61.8 -0.800002V0.199998ZM61.16 3.76V4.76C61.644 4.76 62.0586 4.41333 62.1442 3.93694L61.16 3.76ZM53.76 3.76V2.76C53.2748 2.76 52.8596 3.10831 52.7752 3.58612L53.76 3.76ZM49.48 28V29C49.9652 29 50.3804 28.6517 50.4648 28.1739L49.48 28ZM44.92 28L43.9352 27.8261C43.8838 28.1173 43.9639 28.4162 44.1539 28.6427C44.3439 28.8692 44.6244 29 44.92 29V28ZM49.2 3.76L50.1848 3.93388C50.2362 3.64275 50.1561 3.34379 49.9661 3.1173C49.7761 2.89081 49.4956 2.76 49.2 2.76V3.76ZM41.76 3.76L40.7758 3.58306C40.7234 3.87457 40.8029 4.1743 40.9929 4.40151C41.1829 4.62871 41.4638 4.76 41.76 4.76V3.76ZM42.4 0.199998V-0.800002C41.916 -0.800002 41.5014 -0.453336 41.4158 0.0230592L42.4 0.199998ZM60.8158 0.0230595L60.1758 3.58306L62.1442 3.93694L62.7842 0.376936L60.8158 0.0230595ZM61.16 2.76H53.76V4.76H61.16V2.76ZM52.7752 3.58612L48.4952 27.8261L50.4648 28.1739L54.7448 3.93388L52.7752 3.58612ZM49.48 27H44.92V29H49.48V27ZM45.9048 28.1739L50.1848 3.93388L48.2152 3.58612L43.9352 27.8261L45.9048 28.1739ZM49.2 2.76H41.76V4.76H49.2V2.76ZM42.7442 3.93694L43.3842 0.376937L41.4158 0.0230592L40.7758 3.58306L42.7442 3.93694ZM42.4 1.2H61.8V-0.800002H42.4V1.2Z" fill="black" mask="url(#path-4-outside-1_0_1)"/>
	<mask id="path-6-outside-2_0_1" maskUnits="userSpaceOnUse" x="30" y="48" width="38" height="30" fill="black">
		<rect fill="white" x="30" y="48" width="38" height="30"/>
		<path d="M66.12 49.2L61.2 77H56.64L60 57.96L48.16 77H45L39.84 57.96L36.48 77H31.92L36.84 49.2H41.76L47.68 71L61.24 49.2H66.12Z"/>
	</mask>
	<path d="M66.12 49.2L61.2 77H56.64L60 57.96L48.16 77H45L39.84 57.96L36.48 77H31.92L36.84 49.2H41.76L47.68 71L61.24 49.2H66.12Z" fill="#838383"/>
	<path d="M66.12 49.2L67.1047 49.3743C67.1562 49.0831 67.0763 48.784 66.8862 48.5575C66.6962 48.3309 66.4157 48.2 66.12 48.2V49.2ZM61.2 77V78C61.6851 78 62.1002 77.6519 62.1847 77.1743L61.2 77ZM56.64 77L55.6552 76.8262C55.6038 77.1173 55.6839 77.4163 55.8739 77.6427C56.0639 77.8692 56.3444 78 56.64 78V77ZM60 57.96L60.9848 58.1338C61.0681 57.6619 60.8049 57.1973 60.3574 57.0261C59.9099 56.8548 59.4038 57.025 59.1508 57.4319L60 57.96ZM48.16 77V78C48.5056 78 48.8267 77.8216 49.0092 77.5281L48.16 77ZM45 77L44.0348 77.2616C44.1529 77.6974 44.5485 78 45 78V77ZM39.84 57.96L40.8052 57.6984C40.6827 57.2464 40.2629 56.9399 39.795 56.961C39.3272 56.9821 38.9366 57.325 38.8552 57.7862L39.84 57.96ZM36.48 77V78C36.9652 78 37.3805 77.6516 37.4648 77.1738L36.48 77ZM31.92 77L30.9353 76.8257C30.8838 77.1169 30.9637 77.416 31.1538 77.6425C31.3438 77.8691 31.6243 78 31.92 78V77ZM36.84 49.2V48.2C36.3549 48.2 35.9398 48.5481 35.8553 49.0257L36.84 49.2ZM41.76 49.2L42.7251 48.9379C42.6068 48.5023 42.2114 48.2 41.76 48.2V49.2ZM47.68 71L46.715 71.2621C46.8192 71.646 47.1412 71.9317 47.5349 71.9894C47.9285 72.0472 48.319 71.866 48.5291 71.5282L47.68 71ZM61.24 49.2V48.2C60.8944 48.2 60.5734 48.3784 60.3909 48.6718L61.24 49.2ZM65.1353 49.0257L60.2153 76.8257L62.1847 77.1743L67.1047 49.3743L65.1353 49.0257ZM61.2 76H56.64V78H61.2V76ZM57.6248 77.1738L60.9848 58.1338L59.0152 57.7862L55.6552 76.8262L57.6248 77.1738ZM59.1508 57.4319L47.3108 76.4719L49.0092 77.5281L60.8492 58.4881L59.1508 57.4319ZM48.16 76H45V78H48.16V76ZM45.9652 76.7384L40.8052 57.6984L38.8748 58.2216L44.0348 77.2616L45.9652 76.7384ZM38.8552 57.7862L35.4952 76.8262L37.4648 77.1738L40.8248 58.1338L38.8552 57.7862ZM36.48 76H31.92V78H36.48V76ZM32.9047 77.1743L37.8247 49.3743L35.8553 49.0257L30.9353 76.8257L32.9047 77.1743ZM36.84 50.2H41.76V48.2H36.84V50.2ZM40.795 49.4621L46.715 71.2621L48.6451 70.7379L42.7251 48.9379L40.795 49.4621ZM48.5291 71.5282L62.0891 49.7282L60.3909 48.6718L46.8309 70.4718L48.5291 71.5282ZM61.24 50.2H66.12V48.2H61.24V50.2Z" fill="black" mask="url(#path-6-outside-2_0_1)"/>
</svg>
